<svg width="12" height="33" viewBox="0 0 12 33" fill="none" xmlns="http://www.w3.org/2000/svg">
<path d="M4.576 9.164V8.84H7.912C8.696 8.84 9.296 9.028 9.712 9.404C10.136 9.772 10.348 10.264 10.348 10.88V11.252C10.348 11.74 10.212 12.156 9.94 12.5C9.676 12.836 9.296 13.068 8.8 13.196L10.336 16.028C10.44 16.22 10.516 16.356 10.564 16.436C10.612 16.508 10.656 16.556 10.696 16.58C10.744 16.596 10.808 16.608 10.888 16.616L11.428 16.688V17H9.616L7.72 13.304H6.544V16.028C6.544 16.308 6.556 16.472 6.58 16.52C6.604 16.568 6.68 16.6 6.808 16.616L7.468 16.688V17H4.576V16.688L5.236 16.616C5.364 16.6 5.44 16.568 5.464 16.52C5.488 16.472 5.5 16.308 5.5 16.028V9.812C5.5 9.532 5.488 9.368 5.464 9.32C5.44 9.272 5.364 9.24 5.236 9.224L4.576 9.164ZM7.912 9.224H6.544V12.92H7.912C8.328 12.92 8.652 12.788 8.884 12.524C9.124 12.252 9.244 11.844 9.244 11.3V10.832C9.244 10.288 9.124 9.884 8.884 9.62C8.652 9.356 8.328 9.224 7.912 9.224Z" fill="#4169E1"/>
<path d="M2.208 4.164V3.84H5.1V4.164L4.44 4.224C4.312 4.24 4.236 4.272 4.212 4.32C4.188 4.368 4.176 4.532 4.176 4.812V9.624C4.176 10.064 4.108 10.476 3.972 10.86C3.844 11.236 3.624 11.54 3.312 11.772C3 12.004 2.572 12.12 2.028 12.12C1.748 12.12 1.472 12.072 1.2 11.976C0.936 11.88 0.708 11.708 0.516 11.46C0.324 11.204 0.2 10.848 0.144 10.392L0.84 10.188C0.856 10.612 0.92 10.936 1.032 11.16C1.152 11.384 1.296 11.536 1.464 11.616C1.632 11.696 1.804 11.736 1.98 11.736C2.204 11.736 2.4 11.68 2.568 11.568C2.744 11.448 2.88 11.244 2.976 10.956C3.08 10.668 3.132 10.256 3.132 9.72V4.812C3.132 4.532 3.12 4.368 3.096 4.32C3.072 4.272 2.996 4.24 2.868 4.224L2.208 4.164Z" fill="#4169E1"/>
</svg>
